<svg height="512" viewBox="0 0 58 58" width="512" xmlns="http://www.w3.org/2000/svg"><g id="Page-1" fill="none" fill-rule="evenodd"><g id="024---Happy-Monkey" fill-rule="nonzero"><path id="Shape" d="m50.64 37c4.62.3 7.36 3.6 7.36 9 0 6.14-4.45 9-14 9-1.6894084.0055169-3.3716439-.2199027-5-.67l-.45-4.42c1.7175111.7498613 3.576197 1.1215984 5.45 1.09 10 0 10-3.25 10-5 0-5-2.91-5-4-5-.7777893-.0982868-1.5337025.3016673-1.89 1-.2249863.5489992-.1076177 1.1788773.3 1.61.6795536.7935206.6338645 1.9763883-.1048736 2.7151264s-1.9216058.7844272-2.7151264.1048736c-2.1082522-2.1531511-2.1303677-5.5898951-.05-7.77z" fill="#603e26"/><g fill="#805333"><path id="Shape" d="m19.62 49.49c-.3697374 1.1352629-.5784365 2.3167691-.62 3.51 0 4 1 5 4 5 3.34 0 3.89-3.49 4-7z"/><path id="Shape" d="m38.38 49.49.12.42c.3040825 1.0030097.4722486 2.0422765.5 3.09v1.33c-.22 2.9-1.32 3.67-4 3.67-3.34 0-3.89-3.49-4-7z"/><path id="Shape" d="m17.66 29.9c-2.5-.21-7.18-.54-9.45 1-.93010835.5047921-1.64199105 1.3341354-2 2.33-.54 1.69.22 3.76 3 4.8.8492148.3153338 1.7373388.513816 2.64.59 1.9998847.1449061 4.0090626-.0926656 5.92-.7h22.56c1.7005051.5379121 3.476664.7979201 5.26.77h.72c.8935556-.1130424 1.7679758-.3451 2.6-.69.6301767-.2307381 1.2155286-.5690918 1.73-1 1.1833376-.8848298 1.6835456-2.4174668 1.25-3.83-.3546823-.9977973-1.067477-1.8282033-2-2.33-2.29-1.52-7.06-1.17-9.53-1h-22.7z"/></g><path id="Shape" d="m37.73 30.45c1.5260988 3.2334171 2.5543939 6.6790484 3.05 10.22.1449272 1.1041081.2184133 2.2164219.22 3.33.1707213 2.1667519-.8281663 4.2598409-2.62 5.49l-.33.21c-2.1 1.23-4.92 1.36-7 1.33-.8 0-1.5 0-2 0s-1.22 0-2 0c-2.22 0-5.23-.13-7.36-1.55-1.8151758-1.2115148-2.8418065-3.302941-2.69-5.48.0015867-1.1135781.0750728-2.2258919.22-3.33.4956061-3.5409516 1.5239012-6.9865829 3.05-10.22z" fill="#a56a43"/><ellipse id="Oval" cx="29" cy="43" fill="#fdd7ad" rx="6" ry="8"/><path id="Shape" d="m29 47c-.5522847 0-1-.4477153-1-1v-1c0-.5522847.4477153-1 1-1s1 .4477153 1 1v1c0 .5522847-.4477153 1-1 1z" fill="#cf976a"/><path id="Shape" d="m11.18 26.34c-1.0025825.4387049-2.08564108.6634907-3.18.66-4.418278 0-8-3.581722-8-8s3.581722-8 8-8c.47973788-.0027485.9586223.0407865 1.43.13z" fill="#fb7b76"/><path id="Shape" d="m48.57 11.13c.4713777-.0892135.9502621-.1327485 1.43-.13 4.418278.0000001 7.9999999 3.581722 7.9999999 8s-3.5817219 7.9999999-7.9999999 8c-1.0943589.0034907-2.1774175-.2212951-3.18-.66z" fill="#fb7b76"/><path id="Shape" d="m4 19c-.10283376.0143697-.20716624.0143697-.31 0-.52439854-.1715258-.81079146-.7353618-.64-1.26.65-2 2.42-3.23 5-3.61.55228474-.0800813 1.06491868.3027153 1.14499997.855.08008128.5522847-.30271524 1.0649187-.85499997 1.145-1 .15-2.85.64-3.38 2.25-.15876003.3871692-.54179774.6345478-.96.62z" fill="#ff5364"/><path id="Shape" d="m54 19c-.4508611.022062-.8606053-.2606615-1-.69-.53-1.61-2.34-2.1-3.38-2.25-.3572656-.0518035-.6597558-.2902709-.7935254-.6255737s-.078496-.7165007.145-1c.2234959-.2834993.5812598-.4262298.9385254-.3744263 2.57.38 4.34 1.66 5 3.61.1060721.2552464.1017643.5430127-.0119005.7949697-.1136648.2519569-.3265475.4456294-.5880995.5350303-.1028338.0143697-.2071662.0143697-.31 0z" fill="#ff5364"/><path id="Shape" d="m47.72 25.4c-3.48 3.96-7.88 5.6-18.72 5.6s-15.24-1.64-18.72-5.6c-2-2.24-3.95-10.08 0-15.68 3.29-4.67 9.32-6.23 15.24-6.61.3131175-1.00717883.474883-2.05528412.48-3.11 3 2 3 3 3 3 .8592296-1.35691081 2.3989336-2.12676283 4-2-.4704839.60149957-.5953942 1.40395337-.33 2.12 5.86.41 11.8 2 15 6.6 4 5.6 2.03 13.44.05 15.68z" fill="#fdd7ad"/><path id="Shape" d="m30 19h-2c-.5522847 0-1 .4477153-1 1s.4477153 1 1 1v2c0 .5522847.4477153 1 1 1s1-.4477153 1-1v-2c.5522847 0 1-.4477153 1-1s-.4477153-1-1-1z" fill="#fb7b76"/><path id="Shape" d="m23 20c-.3326261.0005011-.6437296-.1644212-.83-.44-.16-.24-1.66-2.2-4.72-.67-.4835272.2013504-1.0404963-.0045141-1.2768341-.4719378s-.0719586-1.0380149.3768341-1.3080622c3.79-1.9 6.42 0 7.28 1.34.3012473.4588827.176275 1.0748175-.28 1.38-.1610428.112792-.3533994.1722477-.55.17z" fill="#35495e"/><path id="Shape" d="m35 20c-.1994427.0004453-.3944627-.0587572-.56-.17-.4467176-.3078264-.5665168-.9156967-.27-1.37.86-1.3 3.49-3.24 7.28-1.34.4487927.2700473.6131719.8406385.3768341 1.3080622s-.7933069.6732882-1.2768341.4719378c-3.07-1.53-4.56.44-4.72.67-.1885255.2717806-.4992449.4327557-.83.43z" fill="#35495e"/><path id="Shape" d="m25 23h8c0 2.209139-1.790861 4-4 4s-4-1.790861-4-4z" fill="#802d40"/><path id="Shape" d="m47.72 25.4c-1.2897374 1.5321995-2.9012864 2.761347-4.72 3.6 7-12 0-21-5-21s-4 2-9 2-4-2-9-2-12 9-5 21c-1.8076407-.8295408-3.4118359-2.0446333-4.7-3.56-2-2.24-3.95-10.08 0-15.68 2.83-4.08 7.7-5.76 12.82-6.43.79-.1 1.59-.17 2.38-.22.3198996-1.00615227.4884089-2.05428045.5-3.11 3 2 3 3 3 3 .8592296-1.35691081 2.3989336-2.12676283 4-2-.4704839.60149957-.5953942 1.40395337-.33 2.12.73 0 1.47.12 2.2.21 5.1.64 10 2.35 12.83 6.39 3.97 5.6 2 13.44.02 15.68z" fill="#a56a43"/><path id="Shape" d="m34.43 4.65c-.1343616.07492372-.2861874.11288018-.44.11-.3801569.00264567-.7289345-.2104962-.9-.55-.168652-.34591561-.3026389-.70768033-.4-1.08.73 0 1.47.12 2.2.21.2241831.48930455.0208805 1.06827505-.46 1.31z" fill="#805333"/><path id="Shape" d="m25.5 3.11c.0055947.03309858.0055947.06690142 0 .1-.1571257.47099429-.4166824.90131198-.76 1.26-.3900375.38772359-1.0199625.38772359-1.41 0-.2987403-.30122558-.3748974-.75816814-.19-1.14.77-.1 1.57-.17 2.36-.22z" fill="#805333"/></g></g></svg>