<svg height="512" viewBox="0 0 58 58" width="512" xmlns="http://www.w3.org/2000/svg"><g id="Page-1" fill="none" fill-rule="evenodd"><g id="013---Sad-Monkey" fill-rule="nonzero"><path id="Shape" d="m48.49 37.16c.4956718-.1102114 1.0022382-.1638873 1.51-.16 5 0 8 3.36 8 9 0 6.14-4.45 9-14 9-1.6894084.0055169-3.3716439-.2199027-5-.67l-.45-4.42c1.7175111.7498613 3.576197 1.1215984 5.45 1.09 10 0 10-3.25 10-5 0-5-2.91-5-4-5-.7777893-.0982868-1.5337025.3016673-1.89 1-.2249863.5489992-.1076177 1.1788773.3 1.61.6795536.7935206.6338645 1.9763883-.1048736 2.7151264s-1.9216058.7844272-2.7151264.1048736c-.9763849-.9691697-1.545228-2.2750044-1.59-3.65z" fill="#603e26"/><g fill="#805333"><path id="Shape" d="m19.62 49.49c-.3697374 1.1352629-.5784365 2.3167691-.62 3.51 0 4 1 5 4 5 3.34 0 3.89-3.49 4-7z"/><path id="Shape" d="m38.38 49.49.12.42c.3040825 1.0030097.4722486 2.0422765.5 3.09v1.33c-.22 2.9-1.32 3.67-4 3.67-3.34 0-3.89-3.49-4-7z"/><path id="Shape" d="m40.78 40.67c.8602402.9844951 1.9739454 1.7142833 3.22 2.11 1.0126751.3370179 2.1147296.2835202 3.09-.15 1.59-.77 2.56-2.75 1.4-5.47-.3615187-.8320993-.8323307-1.6123019-1.4-2.32-1.8633771-2.1397563-4.1932545-3.8230157-6.81-4.92h-22.56c-2.6167455 1.0969843-4.9466229 2.7802437-6.81 4.92-3 3.9-2 6.82 0 7.79 1.78.86 4.34.21 6.31-2z"/></g><path id="Shape" d="m37.73 30.45c1.5260988 3.2334171 2.5543939 6.6790484 3.05 10.22.1449272 1.1041081.2184133 2.2164219.22 3.33.1707213 2.1667519-.8281663 4.2598409-2.62 5.49l-.33.21c-2.1 1.23-4.92 1.36-7 1.33-.8 0-1.5 0-2 0s-1.22 0-2 0c-2.22 0-5.23-.13-7.36-1.55-1.8151758-1.2115148-2.8418065-3.302941-2.69-5.48.0015867-1.1135781.0750728-2.2258919.22-3.33.4956061-3.5409516 1.5239012-6.9865829 3.05-10.22z" fill="#a56a43"/><ellipse id="Oval" cx="29" cy="43" fill="#fdd7ad" rx="6" ry="8"/><path id="Shape" d="m29 47c-.5522847 0-1-.4477153-1-1v-1c0-.5522847.4477153-1 1-1s1 .4477153 1 1v1c0 .5522847-.4477153 1-1 1z" fill="#cf976a"/><path id="Shape" d="m11.18 26.34c-1.0025825.4387049-2.08564108.6634907-3.18.66-4.418278 0-8-3.581722-8-8s3.581722-8 8-8c.47973788-.0027485.9586223.0407865 1.43.13z" fill="#fb7b76"/><path id="Shape" d="m48.57 11.13c.4713777-.0892135.9502621-.1327485 1.43-.13 4.418278.0000001 7.9999999 3.581722 7.9999999 8s-3.5817219 7.9999999-7.9999999 8c-1.0943589.0034907-2.1774175-.2212951-3.18-.66z" fill="#fb7b76"/><path id="Shape" d="m4 19c-.10283376.0143697-.20716624.0143697-.31 0-.52439854-.1715258-.81079146-.7353618-.64-1.26.65-2 2.42-3.23 5-3.61.55228474-.0800813 1.06491868.3027153 1.14499997.855.08008128.5522847-.30271524 1.0649187-.85499997 1.145-1 .15-2.85.64-3.38 2.25-.15876003.3871692-.54179774.6345478-.96.62z" fill="#ff5364"/><path id="Shape" d="m54 19c-.4508611.022062-.8606053-.2606615-1-.69-.53-1.61-2.34-2.1-3.38-2.25-.3572656-.0518035-.6597558-.2902709-.7935254-.6255737s-.078496-.7165007.145-1c.2234959-.2834993.5812598-.4262298.9385254-.3744263 2.57.38 4.34 1.66 5 3.61.1060721.2552464.1017643.5430127-.0119005.7949697-.1136648.2519569-.3265475.4456294-.5880995.5350303-.1028338.0143697-.2071662.0143697-.31 0z" fill="#ff5364"/><path id="Shape" d="m47.72 25.4c-3.48 3.96-7.88 5.6-18.72 5.6s-15.24-1.64-18.72-5.6c-2-2.24-3.95-10.08 0-15.68 3.29-4.67 9.32-6.23 15.24-6.61.3131175-1.00717883.474883-2.05528412.48-3.11 3 2 3 3 3 3 .8592296-1.35691081 2.3989336-2.12676283 4-2-.4704839.60149957-.5953942 1.40395337-.33 2.12 5.86.41 11.8 2 15 6.6 4 5.6 2.03 13.44.05 15.68z" fill="#fdd7ad"/><path id="Shape" d="m22.49 15.42c1.0215473.9016215 1.5772579 2.2191339 1.51 3.58 0 2.22-1.29 4-2.88 4s-2.88-1.81-2.88-4c.0002379-.6197839.1050421-1.2350859.31-1.82z" fill="#ecf0f1"/><path id="Shape" d="m39.45 17.15c.2083126.5944156.313165 1.2201477.31 1.85 0 2.22-1.29 4-2.88 4s-2.88-1.81-2.88-4c-.0580304-1.3505434.4968579-2.6550821 1.51-3.55z" fill="#ecf0f1"/><path id="Shape" d="m30 20h-2c-.5522847 0-1 .4477153-1 1s.4477153 1 1 1v2c0 .5522847.4477153 1 1 1s1-.4477153 1-1v-2c.5522847 0 1-.4477153 1-1s-.4477153-1-1-1z" fill="#fb7b76"/><path id="Shape" d="m32 27c-.3765582-.0011413-.7205498-.2137203-.89-.55-.3905028-.8283726-1.1966968-1.3823922-2.11-1.45-.9118677.071677-1.716213.6244262-2.11 1.45-.1440974.3460386-.4696151.5824323-.8432591.6123817s-.73266-.1515756-.9300368-.4702434c-.1973769-.3186678-.1999648-.7209575-.0067041-1.0421383.7314062-1.4986211 2.2240164-2.4770674 3.89-2.55 1.6659836.0729326 3.1585938 1.0513789 3.89 2.55.2469243.4916536.050313 1.0904244-.44 1.34-.1383204.0740366-.2931229.1118772-.45.11z" fill="#802d40"/><path id="Shape" d="m47.72 25.4c-1.2897374 1.5321995-2.9012864 2.761347-4.72 3.6 7-12 0-21-5-21s-4 2-9 2-4-2-9-2-12 9-5 21c-1.8076407-.8295408-3.4118359-2.0446333-4.7-3.56-2-2.24-3.95-10.08 0-15.68 2.83-4.09 7.75-5.76 12.87-6.43.78-.1 1.56-.17 2.34-.22.3165078-1.00666598.4816452-2.05478259.49-3.11 3 2 3 3 3 3 .8592296-1.35691081 2.3989336-2.12676283 4-2-.4704839.60149957-.5953942 1.40395337-.33 2.12.73 0 1.45.12 2.18.21 5.11.64 10 2.34 12.86 6.39 3.96 5.6 1.99 13.44.01 15.68z" fill="#a56a43"/><path id="Shape" d="m34.44 4.75c-.1401653.06792355-.2942591.10216663-.45.1-.3765582-.0011413-.7205498-.21372035-.89-.55-.1762031-.34372226-.3137116-.70593975-.41-1.08-.0049288-.03315114-.0049288-.06684886 0-.1.73 0 1.45.12 2.18.21-.0039163.02316901-.0039163.04683099 0 .07.1225056.23595052.1460124.51097108.0653259.764289-.0806864.25331792-.2589237.46407925-.4953259.585711z" fill="#805333"/><path id="Shape" d="m25.51 3.11c-.0060469.07859586-.0228711.15598717-.05.23-.1562529.46915196-.4120984.89897227-.75 1.26-.1877666.18931265-.4433625.29579832-.71.29579832s-.5222334-.10648567-.71-.29579832c-.3398766-.33954667-.390263-.87280234-.12-1.27.83-.1 1.56-.17 2.34-.22z" fill="#805333"/><ellipse id="Oval" cx="21.5" cy="19.5" fill="#35495e" rx="1.5" ry="2.5"/><ellipse id="Oval" cx="36.5" cy="19.5" fill="#35495e" rx="1.5" ry="2.5"/><ellipse id="Oval" cx="38" cy="18.5" fill="#ecf0f1" rx="1" ry="1.5"/><ellipse id="Oval" cx="20" cy="18.5" fill="#ecf0f1" rx="1" ry="1.5"/><path id="Shape" d="m18 18c-.5522847 0-1-.4477153-1-1s.4477153-1 1-1c3.24 0 4.08-1.41 4.12-1.47.2636859-.4754029.8588605-.6530669 1.34-.4.4751566.2526257.6651868.8359745.43 1.32-.13.26-1.4 2.55-5.89 2.55z" fill="#cf976a"/><path id="Shape" d="m40 18c-4.49 0-5.76-2.29-5.89-2.55-.2077405-.4814666-.0082926-1.041631.4569823-1.2834688s1.0383358-.0832034 1.3130177.3634688c.06.1.92 1.47 4.12 1.47.5522847 0 1 .4477153 1 1s-.4477153 1-1 1z" fill="#cf976a"/></g></g></svg>